# xmcd CD database file
#
# Track frame offsets:
#	150
#	43510
#	72697
#	88690
#	128878
#	131999
#	188005
#	227351
#	250401
#	305822
#	324738
#	336981
#
# Disc length: 4680 seconds
#
# Revision: 0
# Processed by: cddbd v1.5.2PL0 Copyright (c) Steve Scherf et al.
# Submitted via: CDex 1.70beta3
#
DISCID=b712460c
DTITLE=Eric Dolphy - Timespan
DYEAR=1900
DGENRE=Jazz
TTITLE0=Don't Blame Me
TTITLE1=On Green Dolphin Street
TTITLE2=Miss Ann ～ 245
TTITLE3=Miss Ann
TTITLE4=Dialogue
TTITLE5=Left Alone
TTITLE6=I Got Rhythm
TTITLE7=Oh Lady be Good
TTITLE8=G.W.
TTITLE9=245
TTITLE10=The Story of Love
TTITLE11=Moods at Dusk
EXTD=
EXTT0=
EXTT1=
EXTT2=
EXTT3=
EXTT4=
EXTT5=
EXTT6=
EXTT7=
EXTT8=
EXTT9=
EXTT10=
EXTT11=
PLAYORDER=
